<svg xmlns="http://www.w3.org/2000/svg" xmlns:xlink="http://www.w3.org/1999/xlink" width="500" zoomAndPan="magnify" viewBox="0 0 375 374.999991" height="500" preserveAspectRatio="xMidYMid meet" version="1.0"><defs><clipPath id="19aae27aec"><path d="M 123.375 134 L 251.625 134 L 251.625 262.5 L 123.375 262.5 Z M 123.375 134 " clip-rule="nonzero"/></clipPath><clipPath id="36a1a85b31"><path d="M 187.5 262.058594 C 188.550781 262.058594 189.597656 262.03125 190.644531 261.980469 C 191.695312 261.925781 192.738281 261.847656 193.785156 261.746094 C 194.828125 261.640625 195.867188 261.511719 196.90625 261.355469 C 197.945312 261.203125 198.976562 261.023438 200.003906 260.816406 C 201.035156 260.609375 202.058594 260.378906 203.074219 260.125 C 204.09375 259.871094 205.105469 259.589844 206.109375 259.285156 C 207.113281 258.980469 208.105469 258.648438 209.09375 258.296875 C 210.082031 257.941406 211.0625 257.5625 212.03125 257.160156 C 213 256.757812 213.957031 256.332031 214.90625 255.882812 C 215.855469 255.4375 216.789062 254.964844 217.714844 254.46875 C 218.640625 253.972656 219.554688 253.457031 220.453125 252.917969 C 221.351562 252.378906 222.238281 251.816406 223.109375 251.234375 C 223.984375 250.648438 224.839844 250.046875 225.683594 249.421875 C 226.527344 248.796875 227.351562 248.148438 228.164062 247.484375 C 228.976562 246.820312 229.769531 246.132812 230.546875 245.429688 C 231.324219 244.722656 232.082031 244 232.824219 243.257812 C 233.566406 242.515625 234.289062 241.757812 234.996094 240.980469 C 235.699219 240.203125 236.382812 239.410156 237.050781 238.597656 C 237.714844 237.785156 238.359375 236.960938 238.988281 236.117188 C 239.613281 235.273438 240.214844 234.417969 240.800781 233.546875 C 241.382812 232.671875 241.941406 231.785156 242.484375 230.886719 C 243.023438 229.988281 243.539062 229.074219 244.035156 228.148438 C 244.53125 227.226562 245 226.289062 245.449219 225.339844 C 245.898438 224.390625 246.324219 223.433594 246.726562 222.464844 C 247.128906 221.496094 247.507812 220.515625 247.859375 219.527344 C 248.214844 218.539062 248.542969 217.546875 248.851562 216.542969 C 249.15625 215.539062 249.433594 214.527344 249.691406 213.507812 C 249.945312 212.492188 250.175781 211.46875 250.382812 210.441406 C 250.589844 209.410156 250.769531 208.378906 250.921875 207.339844 C 251.078125 206.300781 251.207031 205.261719 251.3125 204.21875 C 251.414062 203.171875 251.492188 202.128906 251.542969 201.078125 C 251.597656 200.03125 251.625 198.984375 251.625 197.933594 C 248.105469 112.855469 126.875 112.898438 123.375 197.933594 C 123.375 198.984375 123.402344 200.03125 123.457031 201.078125 C 123.507812 202.128906 123.585938 203.171875 123.6875 204.21875 C 123.792969 205.261719 123.921875 206.300781 124.078125 207.339844 C 124.230469 208.378906 124.410156 209.410156 124.617188 210.441406 C 124.824219 211.46875 125.054688 212.492188 125.308594 213.507812 C 125.566406 214.527344 125.84375 215.539062 126.148438 216.542969 C 126.457031 217.546875 126.785156 218.539062 127.140625 219.527344 C 127.492188 220.515625 127.871094 221.496094 128.273438 222.464844 C 128.675781 223.433594 129.101562 224.390625 129.550781 225.339844 C 130 226.289062 130.46875 227.226562 130.964844 228.148438 C 131.460938 229.074219 131.976562 229.988281 132.515625 230.886719 C 133.058594 231.785156 133.617188 232.671875 134.199219 233.546875 C 134.785156 234.417969 135.386719 235.273438 136.011719 236.117188 C 136.636719 236.960938 137.285156 237.785156 137.949219 238.597656 C 138.617188 239.410156 139.300781 240.203125 140.003906 240.980469 C 140.710938 241.757812 141.433594 242.515625 142.175781 243.257812 C 142.917969 244 143.675781 244.722656 144.453125 245.429688 C 145.230469 246.132812 146.023438 246.820312 146.835938 247.484375 C 147.648438 248.148438 148.472656 248.796875 149.316406 249.421875 C 150.160156 250.046875 151.015625 250.648438 151.890625 251.234375 C 152.761719 251.816406 153.648438 252.378906 154.546875 252.917969 C 155.445312 253.457031 156.359375 253.972656 157.285156 254.46875 C 158.210938 254.964844 159.144531 255.4375 160.09375 255.882812 C 161.042969 256.332031 162 256.757812 162.96875 257.160156 C 163.9375 257.5625 164.917969 257.941406 165.90625 258.296875 C 166.894531 258.648438 167.886719 258.980469 168.890625 259.285156 C 169.894531 259.589844 170.90625 259.871094 171.925781 260.125 C 172.941406 260.378906 173.964844 260.609375 174.996094 260.816406 C 176.023438 261.023438 177.054688 261.203125 178.09375 261.355469 C 179.132812 261.511719 180.171875 261.640625 181.214844 261.746094 C 182.261719 261.847656 183.304688 261.925781 184.355469 261.980469 C 185.402344 262.03125 186.449219 262.058594 187.5 262.058594 Z M 167.804688 173.890625 L 185.195312 156.503906 C 185.503906 156.199219 185.855469 155.964844 186.253906 155.800781 C 186.652344 155.636719 187.070312 155.554688 187.5 155.554688 C 187.929688 155.554688 188.347656 155.636719 188.746094 155.800781 C 189.144531 155.964844 189.496094 156.199219 189.804688 156.503906 L 207.195312 173.890625 C 207.492188 174.199219 207.722656 174.550781 207.878906 174.949219 C 208.039062 175.347656 208.117188 175.757812 208.113281 176.1875 C 208.113281 176.613281 208.027344 177.027344 207.863281 177.421875 C 207.695312 177.816406 207.460938 178.164062 207.160156 178.46875 C 206.859375 178.769531 206.507812 179.003906 206.113281 179.167969 C 205.71875 179.332031 205.308594 179.417969 204.878906 179.421875 C 204.453125 179.425781 204.039062 179.347656 203.640625 179.1875 C 203.246094 179.027344 202.894531 178.800781 202.585938 178.5 L 190.761719 166.675781 L 190.761719 191.414062 C 190.753906 191.839844 190.667969 192.253906 190.5 192.648438 C 190.332031 193.042969 190.097656 193.390625 189.792969 193.691406 C 189.484375 193.992188 189.136719 194.226562 188.738281 194.386719 C 188.339844 194.550781 187.929688 194.632812 187.5 194.632812 C 187.070312 194.632812 186.660156 194.550781 186.261719 194.386719 C 185.863281 194.226562 185.515625 193.992188 185.207031 193.691406 C 184.902344 193.390625 184.667969 193.042969 184.5 192.648438 C 184.332031 192.253906 184.246094 191.839844 184.238281 191.414062 L 184.238281 166.675781 C 184.238281 166.675781 173.195312 177.738281 172.414062 178.5 C 172.105469 178.800781 171.753906 179.027344 171.359375 179.1875 C 170.960938 179.347656 170.546875 179.425781 170.121094 179.421875 C 169.691406 179.417969 169.28125 179.335938 168.886719 179.167969 C 168.492188 179.003906 168.140625 178.769531 167.839844 178.46875 C 167.539062 178.164062 167.304688 177.816406 167.136719 177.421875 C 166.972656 177.027344 166.886719 176.613281 166.886719 176.1875 C 166.882812 175.757812 166.960938 175.347656 167.121094 174.949219 C 167.277344 174.550781 167.507812 174.199219 167.804688 173.890625 Z M 167.804688 219.539062 L 185.195312 202.152344 C 185.503906 201.847656 185.855469 201.613281 186.253906 201.449219 C 186.652344 201.285156 187.070312 201.203125 187.5 201.203125 C 187.929688 201.203125 188.347656 201.285156 188.746094 201.449219 C 189.144531 201.613281 189.496094 201.847656 189.804688 202.152344 L 207.195312 219.539062 C 207.492188 219.847656 207.722656 220.199219 207.878906 220.597656 C 208.039062 220.996094 208.117188 221.40625 208.113281 221.835938 C 208.113281 222.261719 208.027344 222.675781 207.863281 223.070312 C 207.695312 223.464844 207.460938 223.8125 207.160156 224.113281 C 206.859375 224.417969 206.507812 224.652344 206.113281 224.816406 C 205.71875 224.980469 205.308594 225.066406 204.878906 225.070312 C 204.453125 225.074219 204.039062 224.996094 203.640625 224.835938 C 203.246094 224.675781 202.894531 224.445312 202.585938 224.148438 L 190.761719 212.324219 L 190.761719 237.0625 C 190.753906 237.488281 190.667969 237.902344 190.5 238.296875 C 190.332031 238.691406 190.097656 239.039062 189.792969 239.339844 C 189.484375 239.640625 189.136719 239.875 188.738281 240.035156 C 188.339844 240.199219 187.929688 240.28125 187.5 240.28125 C 187.070312 240.28125 186.660156 240.199219 186.261719 240.035156 C 185.863281 239.875 185.515625 239.640625 185.207031 239.339844 C 184.902344 239.039062 184.667969 238.691406 184.5 238.296875 C 184.332031 237.902344 184.246094 237.488281 184.238281 237.0625 L 184.238281 212.324219 C 184.238281 212.324219 173.195312 223.386719 172.414062 224.148438 C 172.105469 224.445312 171.753906 224.675781 171.359375 224.835938 C 170.960938 224.996094 170.546875 225.074219 170.121094 225.070312 C 169.691406 225.066406 169.28125 224.984375 168.886719 224.816406 C 168.492188 224.652344 168.140625 224.417969 167.839844 224.117188 C 167.535156 223.8125 167.304688 223.464844 167.136719 223.070312 C 166.972656 222.675781 166.886719 222.261719 166.886719 221.835938 C 166.882812 221.40625 166.960938 220.996094 167.121094 220.597656 C 167.277344 220.199219 167.507812 219.847656 167.804688 219.539062 Z M 167.804688 219.539062 " clip-rule="nonzero"/></clipPath><linearGradient x1="2.500009" gradientTransform="matrix(-2.173729, 0, 0, -2.173729, 257.059328, 267.493191)" y1="31.924" x2="61.500002" gradientUnits="userSpaceOnUse" y2="31.924" id="e2664dd86c"><stop stop-opacity="1" stop-color="rgb(99.998474%, 87.098694%, 0%)" offset="0"/><stop stop-opacity="1" stop-color="rgb(99.995422%, 86.894226%, 0%)" offset="0.00390625"/><stop stop-opacity="1" stop-color="rgb(99.992371%, 86.691284%, 0%)" offset="0.0078125"/><stop stop-opacity="1" stop-color="rgb(99.989319%, 86.486816%, 0%)" offset="0.0117187"/><stop stop-opacity="1" stop-color="rgb(99.986267%, 86.283875%, 0%)" offset="0.015625"/><stop stop-opacity="1" stop-color="rgb(99.983215%, 86.079407%, 0%)" offset="0.0195312"/><stop stop-opacity="1" stop-color="rgb(99.980164%, 85.876465%, 0%)" offset="0.0234375"/><stop stop-opacity="1" stop-color="rgb(99.977112%, 85.671997%, 0%)" offset="0.0273437"/><stop stop-opacity="1" stop-color="rgb(99.97406%, 85.467529%, 0%)" offset="0.03125"/><stop stop-opacity="1" stop-color="rgb(99.971008%, 85.263062%, 0%)" offset="0.0351562"/><stop stop-opacity="1" stop-color="rgb(99.967957%, 85.06012%, 0%)" offset="0.0390625"/><stop stop-opacity="1" stop-color="rgb(99.964905%, 84.855652%, 0%)" offset="0.0429687"/><stop stop-opacity="1" stop-color="rgb(99.961853%, 84.65271%, 0%)" offset="0.046875"/><stop stop-opacity="1" stop-color="rgb(99.958801%, 84.448242%, 0%)" offset="0.0507812"/><stop stop-opacity="1" stop-color="rgb(99.95575%, 84.2453%, 0%)" offset="0.0546875"/><stop stop-opacity="1" stop-color="rgb(99.952698%, 84.040833%, 0%)" offset="0.0585937"/><stop stop-opacity="1" stop-color="rgb(99.949646%, 83.836365%, 0%)" offset="0.0625"/><stop stop-opacity="1" stop-color="rgb(99.946594%, 83.631897%, 0%)" offset="0.0664062"/><stop stop-opacity="1" stop-color="rgb(99.943542%, 83.428955%, 0%)" offset="0.0703125"/><stop stop-opacity="1" stop-color="rgb(99.940491%, 83.224487%, 0%)" offset="0.0742187"/><stop stop-opacity="1" stop-color="rgb(99.937439%, 83.021545%, 0%)" offset="0.078125"/><stop stop-opacity="1" stop-color="rgb(99.932861%, 82.817078%, 0%)" offset="0.0820312"/><stop stop-opacity="1" stop-color="rgb(99.92981%, 82.61261%, 0%)" offset="0.0859375"/><stop stop-opacity="1" stop-color="rgb(99.926758%, 82.408142%, 0%)" offset="0.0898437"/><stop stop-opacity="1" stop-color="rgb(99.923706%, 82.2052%, 0%)" offset="0.09375"/><stop stop-opacity="1" stop-color="rgb(99.920654%, 82.000732%, 0%)" offset="0.0976562"/><stop stop-opacity="1" stop-color="rgb(99.917603%, 81.797791%, 0%)" offset="0.101562"/><stop stop-opacity="1" stop-color="rgb(99.914551%, 81.593323%, 0%)" offset="0.105469"/><stop stop-opacity="1" stop-color="rgb(99.911499%, 81.390381%, 0%)" offset="0.109375"/><stop stop-opacity="1" stop-color="rgb(99.908447%, 81.185913%, 0%)" offset="0.113281"/><stop stop-opacity="1" stop-color="rgb(99.905396%, 80.981445%, 0%)" offset="0.117187"/><stop stop-opacity="1" stop-color="rgb(99.902344%, 80.776978%, 0%)" offset="0.121094"/><stop stop-opacity="1" stop-color="rgb(99.899292%, 80.574036%, 0%)" offset="0.125"/><stop stop-opacity="1" stop-color="rgb(99.89624%, 80.369568%, 0%)" offset="0.128906"/><stop stop-opacity="1" stop-color="rgb(99.893188%, 80.166626%, 0%)" offset="0.132812"/><stop stop-opacity="1" stop-color="rgb(99.890137%, 79.962158%, 0%)" offset="0.136719"/><stop stop-opacity="1" stop-color="rgb(99.887085%, 79.759216%, 0%)" offset="0.140625"/><stop stop-opacity="1" stop-color="rgb(99.884033%, 79.554749%, 0%)" offset="0.144531"/><stop stop-opacity="1" stop-color="rgb(99.880981%, 79.350281%, 0%)" offset="0.148438"/><stop stop-opacity="1" stop-color="rgb(99.87793%, 79.145813%, 0%)" offset="0.152344"/><stop stop-opacity="1" stop-color="rgb(99.874878%, 78.942871%, 0%)" offset="0.15625"/><stop stop-opacity="1" stop-color="rgb(99.8703%, 78.738403%, 0%)" offset="0.160156"/><stop stop-opacity="1" stop-color="rgb(99.867249%, 78.535461%, 0%)" offset="0.164062"/><stop stop-opacity="1" stop-color="rgb(99.864197%, 78.330994%, 0%)" offset="0.167969"/><stop stop-opacity="1" stop-color="rgb(99.861145%, 78.128052%, 0%)" offset="0.171875"/><stop stop-opacity="1" stop-color="rgb(99.858093%, 77.923584%, 0%)" offset="0.175781"/><stop stop-opacity="1" stop-color="rgb(99.855042%, 77.719116%, 0%)" offset="0.179688"/><stop stop-opacity="1" stop-color="rgb(99.85199%, 77.514648%, 0%)" offset="0.183594"/><stop stop-opacity="1" stop-color="rgb(99.848938%, 77.311707%, 0%)" offset="0.1875"/><stop stop-opacity="1" stop-color="rgb(99.845886%, 77.107239%, 0%)" offset="0.191406"/><stop stop-opacity="1" stop-color="rgb(99.842834%, 76.904297%, 0%)" offset="0.195312"/><stop stop-opacity="1" stop-color="rgb(99.839783%, 76.699829%, 0%)" offset="0.199219"/><stop stop-opacity="1" stop-color="rgb(99.836731%, 76.495361%, 0%)" offset="0.203125"/><stop stop-opacity="1" stop-color="rgb(99.833679%, 76.290894%, 0%)" offset="0.207031"/><stop stop-opacity="1" stop-color="rgb(99.830627%, 76.087952%, 0%)" offset="0.210937"/><stop stop-opacity="1" stop-color="rgb(99.827576%, 75.883484%, 0%)" offset="0.214844"/><stop stop-opacity="1" stop-color="rgb(99.824524%, 75.680542%, 0%)" offset="0.21875"/><stop stop-opacity="1" stop-color="rgb(99.821472%, 75.476074%, 0%)" offset="0.222656"/><stop stop-opacity="1" stop-color="rgb(99.81842%, 75.273132%, 0%)" offset="0.226562"/><stop stop-opacity="1" stop-color="rgb(99.815369%, 75.068665%, 0%)" offset="0.230469"/><stop stop-opacity="1" stop-color="rgb(99.812317%, 74.864197%, 0%)" offset="0.234375"/><stop stop-opacity="1" stop-color="rgb(99.809265%, 74.659729%, 0%)" offset="0.238281"/><stop stop-opacity="1" stop-color="rgb(99.806213%, 74.456787%, 0%)" offset="0.242187"/><stop stop-opacity="1" stop-color="rgb(99.801636%, 74.252319%, 0%)" offset="0.246094"/><stop stop-opacity="1" stop-color="rgb(99.798584%, 74.049377%, 0%)" offset="0.25"/><stop stop-opacity="1" stop-color="rgb(99.795532%, 73.84491%, 0%)" offset="0.253906"/><stop stop-opacity="1" stop-color="rgb(99.79248%, 73.641968%, 0%)" offset="0.257812"/><stop stop-opacity="1" stop-color="rgb(99.789429%, 73.4375%, 0%)" offset="0.261719"/><stop stop-opacity="1" stop-color="rgb(99.786377%, 73.233032%, 0%)" offset="0.265625"/><stop stop-opacity="1" stop-color="rgb(99.783325%, 73.028564%, 0%)" offset="0.269531"/><stop stop-opacity="1" stop-color="rgb(99.780273%, 72.825623%, 0%)" offset="0.273438"/><stop stop-opacity="1" stop-color="rgb(99.777222%, 72.621155%, 0%)" offset="0.277344"/><stop stop-opacity="1" stop-color="rgb(99.77417%, 72.418213%, 0%)" offset="0.28125"/><stop stop-opacity="1" stop-color="rgb(99.771118%, 72.213745%, 0%)" offset="0.285156"/><stop stop-opacity="1" stop-color="rgb(99.768066%, 72.010803%, 0%)" offset="0.289062"/><stop stop-opacity="1" stop-color="rgb(99.765015%, 71.806335%, 0%)" offset="0.292969"/><stop stop-opacity="1" stop-color="rgb(99.761963%, 71.601868%, 0%)" offset="0.296875"/><stop stop-opacity="1" stop-color="rgb(99.758911%, 71.3974%, 0%)" offset="0.300781"/><stop stop-opacity="1" stop-color="rgb(99.755859%, 71.194458%, 0%)" offset="0.304688"/><stop stop-opacity="1" stop-color="rgb(99.752808%, 70.98999%, 0%)" offset="0.308594"/><stop stop-opacity="1" stop-color="rgb(99.749756%, 70.787048%, 0%)" offset="0.3125"/><stop stop-opacity="1" stop-color="rgb(99.746704%, 70.582581%, 0%)" offset="0.316406"/><stop stop-opacity="1" stop-color="rgb(99.743652%, 70.379639%, 0%)" offset="0.320312"/><stop stop-opacity="1" stop-color="rgb(99.739075%, 70.175171%, 0%)" offset="0.324219"/><stop stop-opacity="1" stop-color="rgb(99.736023%, 69.970703%, 0%)" offset="0.328125"/><stop stop-opacity="1" stop-color="rgb(99.732971%, 69.766235%, 0%)" offset="0.332031"/><stop stop-opacity="1" stop-color="rgb(99.729919%, 69.563293%, 0%)" offset="0.335938"/><stop stop-opacity="1" stop-color="rgb(99.726868%, 69.358826%, 0%)" offset="0.339844"/><stop stop-opacity="1" stop-color="rgb(99.723816%, 69.155884%, 0%)" offset="0.34375"/><stop stop-opacity="1" stop-color="rgb(99.720764%, 68.951416%, 0%)" offset="0.347656"/><stop stop-opacity="1" stop-color="rgb(99.717712%, 68.746948%, 0%)" offset="0.351562"/><stop stop-opacity="1" stop-color="rgb(99.714661%, 68.54248%, 0%)" offset="0.355469"/><stop stop-opacity="1" stop-color="rgb(99.711609%, 68.339539%, 0%)" offset="0.359375"/><stop stop-opacity="1" stop-color="rgb(99.708557%, 68.135071%, 0%)" offset="0.363281"/><stop stop-opacity="1" stop-color="rgb(99.705505%, 67.932129%, 0%)" offset="0.367188"/><stop stop-opacity="1" stop-color="rgb(99.702454%, 67.727661%, 0%)" offset="0.371094"/><stop stop-opacity="1" stop-color="rgb(99.699402%, 67.524719%, 0%)" offset="0.375"/><stop stop-opacity="1" stop-color="rgb(99.69635%, 67.320251%, 0%)" offset="0.378906"/><stop stop-opacity="1" stop-color="rgb(99.693298%, 67.115784%, 0%)" offset="0.382812"/><stop stop-opacity="1" stop-color="rgb(99.690247%, 66.911316%, 0%)" offset="0.386719"/><stop stop-opacity="1" stop-color="rgb(99.687195%, 66.708374%, 0%)" offset="0.390625"/><stop stop-opacity="1" stop-color="rgb(99.684143%, 66.503906%, 0%)" offset="0.394531"/><stop stop-opacity="1" stop-color="rgb(99.681091%, 66.300964%, 0%)" offset="0.398438"/><stop stop-opacity="1" stop-color="rgb(99.67804%, 66.096497%, 0%)" offset="0.402344"/><stop stop-opacity="1" stop-color="rgb(99.674988%, 65.893555%, 0%)" offset="0.40625"/><stop stop-opacity="1" stop-color="rgb(99.67041%, 65.689087%, 0%)" offset="0.410156"/><stop stop-opacity="1" stop-color="rgb(99.667358%, 65.484619%, 0%)" offset="0.414062"/><stop stop-opacity="1" stop-color="rgb(99.664307%, 65.280151%, 0%)" offset="0.417969"/><stop stop-opacity="1" stop-color="rgb(99.661255%, 65.077209%, 0%)" offset="0.421875"/><stop stop-opacity="1" stop-color="rgb(99.658203%, 64.872742%, 0%)" offset="0.425781"/><stop stop-opacity="1" stop-color="rgb(99.655151%, 64.6698%, 0%)" offset="0.429688"/><stop stop-opacity="1" stop-color="rgb(99.6521%, 64.465332%, 0%)" offset="0.433594"/><stop stop-opacity="1" stop-color="rgb(99.649048%, 64.26239%, 0%)" offset="0.4375"/><stop stop-opacity="1" stop-color="rgb(99.645996%, 64.057922%, 0%)" offset="0.441406"/><stop stop-opacity="1" stop-color="rgb(99.642944%, 63.853455%, 0%)" offset="0.445312"/><stop stop-opacity="1" stop-color="rgb(99.639893%, 63.648987%, 0%)" offset="0.449219"/><stop stop-opacity="1" stop-color="rgb(99.636841%, 63.446045%, 0%)" offset="0.453125"/><stop stop-opacity="1" stop-color="rgb(99.633789%, 63.241577%, 0%)" offset="0.457031"/><stop stop-opacity="1" stop-color="rgb(99.630737%, 63.038635%, 0%)" offset="0.460938"/><stop stop-opacity="1" stop-color="rgb(99.627686%, 62.834167%, 0%)" offset="0.464844"/><stop stop-opacity="1" stop-color="rgb(99.624634%, 62.631226%, 0%)" offset="0.46875"/><stop stop-opacity="1" stop-color="rgb(99.621582%, 62.426758%, 0%)" offset="0.472656"/><stop stop-opacity="1" stop-color="rgb(99.61853%, 62.22229%, 0%)" offset="0.476562"/><stop stop-opacity="1" stop-color="rgb(99.615479%, 62.017822%, 0%)" offset="0.480469"/><stop stop-opacity="1" stop-color="rgb(99.612427%, 61.81488%, 0%)" offset="0.484375"/><stop stop-opacity="1" stop-color="rgb(99.607849%, 61.610413%, 0%)" offset="0.488281"/><stop stop-opacity="1" stop-color="rgb(99.604797%, 61.407471%, 0%)" offset="0.492188"/><stop stop-opacity="1" stop-color="rgb(99.601746%, 61.203003%, 0%)" offset="0.496094"/><stop stop-opacity="1" stop-color="rgb(99.598694%, 60.998535%, 0%)" offset="0.5"/><stop stop-opacity="1" stop-color="rgb(99.595642%, 60.794067%, 0%)" offset="0.503906"/><stop stop-opacity="1" stop-color="rgb(99.59259%, 60.591125%, 0%)" offset="0.507812"/><stop stop-opacity="1" stop-color="rgb(99.589539%, 60.386658%, 0%)" offset="0.511719"/><stop stop-opacity="1" stop-color="rgb(99.586487%, 60.183716%, 0%)" offset="0.515625"/><stop stop-opacity="1" stop-color="rgb(99.583435%, 59.979248%, 0%)" offset="0.519531"/><stop stop-opacity="1" stop-color="rgb(99.580383%, 59.776306%, 0%)" offset="0.523438"/><stop stop-opacity="1" stop-color="rgb(99.577332%, 59.571838%, 0%)" offset="0.527344"/><stop stop-opacity="1" stop-color="rgb(99.57428%, 59.367371%, 0%)" offset="0.53125"/><stop stop-opacity="1" stop-color="rgb(99.571228%, 59.162903%, 0%)" offset="0.535156"/><stop stop-opacity="1" stop-color="rgb(99.568176%, 58.959961%, 0%)" offset="0.539063"/><stop stop-opacity="1" stop-color="rgb(99.565125%, 58.755493%, 0%)" offset="0.542969"/><stop stop-opacity="1" stop-color="rgb(99.562073%, 58.552551%, 0%)" offset="0.546875"/><stop stop-opacity="1" stop-color="rgb(99.559021%, 58.348083%, 0%)" offset="0.550781"/><stop stop-opacity="1" stop-color="rgb(99.555969%, 58.145142%, 0%)" offset="0.554688"/><stop stop-opacity="1" stop-color="rgb(99.552917%, 57.940674%, 0%)" offset="0.558594"/><stop stop-opacity="1" stop-color="rgb(99.549866%, 57.736206%, 0%)" offset="0.5625"/><stop stop-opacity="1" stop-color="rgb(99.545288%, 57.531738%, 0%)" offset="0.566406"/><stop stop-opacity="1" stop-color="rgb(99.542236%, 57.328796%, 0%)" offset="0.570313"/><stop stop-opacity="1" stop-color="rgb(99.539185%, 57.124329%, 0%)" offset="0.574219"/><stop stop-opacity="1" stop-color="rgb(99.536133%, 56.921387%, 0%)" offset="0.578125"/><stop stop-opacity="1" stop-color="rgb(99.533081%, 56.716919%, 0%)" offset="0.582031"/><stop stop-opacity="1" stop-color="rgb(99.530029%, 56.513977%, 0%)" offset="0.585938"/><stop stop-opacity="1" stop-color="rgb(99.526978%, 56.309509%, 0%)" offset="0.589844"/><stop stop-opacity="1" stop-color="rgb(99.523926%, 56.105042%, 0%)" offset="0.59375"/><stop stop-opacity="1" stop-color="rgb(99.520874%, 55.900574%, 0%)" offset="0.597656"/><stop stop-opacity="1" stop-color="rgb(99.517822%, 55.697632%, 0%)" offset="0.601563"/><stop stop-opacity="1" stop-color="rgb(99.514771%, 55.493164%, 0%)" offset="0.605469"/><stop stop-opacity="1" stop-color="rgb(99.511719%, 55.290222%, 0%)" offset="0.609375"/><stop stop-opacity="1" stop-color="rgb(99.508667%, 55.085754%, 0%)" offset="0.613281"/><stop stop-opacity="1" stop-color="rgb(99.505615%, 54.881287%, 0%)" offset="0.617188"/><stop stop-opacity="1" stop-color="rgb(99.502563%, 54.676819%, 0%)" offset="0.621094"/><stop stop-opacity="1" stop-color="rgb(99.499512%, 54.473877%, 0%)" offset="0.625"/><stop stop-opacity="1" stop-color="rgb(99.49646%, 54.269409%, 0%)" offset="0.628906"/><stop stop-opacity="1" stop-color="rgb(99.493408%, 54.066467%, 0%)" offset="0.632812"/><stop stop-opacity="1" stop-color="rgb(99.490356%, 53.862%, 0%)" offset="0.636719"/><stop stop-opacity="1" stop-color="rgb(99.487305%, 53.659058%, 0%)" offset="0.640625"/><stop stop-opacity="1" stop-color="rgb(99.484253%, 53.45459%, 0%)" offset="0.644531"/><stop stop-opacity="1" stop-color="rgb(99.481201%, 53.250122%, 0%)" offset="0.648438"/><stop stop-opacity="1" stop-color="rgb(99.476624%, 53.045654%, 0%)" offset="0.652344"/><stop stop-opacity="1" stop-color="rgb(99.473572%, 52.842712%, 0%)" offset="0.65625"/><stop stop-opacity="1" stop-color="rgb(99.47052%, 52.638245%, 0%)" offset="0.660156"/><stop stop-opacity="1" stop-color="rgb(99.467468%, 52.435303%, 0%)" offset="0.664062"/><stop stop-opacity="1" stop-color="rgb(99.464417%, 52.230835%, 0%)" offset="0.667969"/><stop stop-opacity="1" stop-color="rgb(99.461365%, 52.027893%, 0%)" offset="0.671875"/><stop stop-opacity="1" stop-color="rgb(99.458313%, 51.823425%, 0%)" offset="0.675781"/><stop stop-opacity="1" stop-color="rgb(99.455261%, 51.618958%, 0%)" offset="0.679688"/><stop stop-opacity="1" stop-color="rgb(99.452209%, 51.41449%, 0%)" offset="0.683594"/><stop stop-opacity="1" stop-color="rgb(99.449158%, 51.211548%, 0%)" offset="0.6875"/><stop stop-opacity="1" stop-color="rgb(99.446106%, 51.00708%, 0%)" offset="0.691406"/><stop stop-opacity="1" stop-color="rgb(99.443054%, 50.804138%, 0%)" offset="0.695312"/><stop stop-opacity="1" stop-color="rgb(99.440002%, 50.59967%, 0%)" offset="0.699219"/><stop stop-opacity="1" stop-color="rgb(99.436951%, 50.396729%, 0%)" offset="0.703125"/><stop stop-opacity="1" stop-color="rgb(99.433899%, 50.192261%, 0%)" offset="0.707031"/><stop stop-opacity="1" stop-color="rgb(99.430847%, 49.987793%, 0%)" offset="0.710938"/><stop stop-opacity="1" stop-color="rgb(99.427795%, 49.783325%, 0%)" offset="0.714844"/><stop stop-opacity="1" stop-color="rgb(99.424744%, 49.580383%, 0%)" offset="0.71875"/><stop stop-opacity="1" stop-color="rgb(99.421692%, 49.375916%, 0%)" offset="0.722656"/><stop stop-opacity="1" stop-color="rgb(99.41864%, 49.172974%, 0%)" offset="0.726562"/><stop stop-opacity="1" stop-color="rgb(99.414062%, 48.968506%, 0%)" offset="0.730469"/><stop stop-opacity="1" stop-color="rgb(99.411011%, 48.765564%, 0%)" offset="0.734375"/><stop stop-opacity="1" stop-color="rgb(99.407959%, 48.561096%, 0%)" offset="0.738281"/><stop stop-opacity="1" stop-color="rgb(99.404907%, 48.356628%, 0%)" offset="0.742188"/><stop stop-opacity="1" stop-color="rgb(99.401855%, 48.152161%, 0%)" offset="0.746094"/><stop stop-opacity="1" stop-color="rgb(99.398804%, 47.949219%, 0%)" offset="0.75"/><stop stop-opacity="1" stop-color="rgb(99.395752%, 47.744751%, 0%)" offset="0.753906"/><stop stop-opacity="1" stop-color="rgb(99.3927%, 47.541809%, 0%)" offset="0.757812"/><stop stop-opacity="1" stop-color="rgb(99.389648%, 47.337341%, 0%)" offset="0.761719"/><stop stop-opacity="1" stop-color="rgb(99.386597%, 47.132874%, 0%)" offset="0.765625"/><stop stop-opacity="1" stop-color="rgb(99.383545%, 46.928406%, 0%)" offset="0.769531"/><stop stop-opacity="1" stop-color="rgb(99.380493%, 46.725464%, 0%)" offset="0.773438"/><stop stop-opacity="1" stop-color="rgb(99.377441%, 46.520996%, 0%)" offset="0.777344"/><stop stop-opacity="1" stop-color="rgb(99.37439%, 46.318054%, 0%)" offset="0.78125"/><stop stop-opacity="1" stop-color="rgb(99.371338%, 46.113586%, 0%)" offset="0.785156"/><stop stop-opacity="1" stop-color="rgb(99.368286%, 45.910645%, 0%)" offset="0.789062"/><stop stop-opacity="1" stop-color="rgb(99.365234%, 45.706177%, 0%)" offset="0.792969"/><stop stop-opacity="1" stop-color="rgb(99.362183%, 45.501709%, 0%)" offset="0.796875"/><stop stop-opacity="1" stop-color="rgb(99.359131%, 45.297241%, 0%)" offset="0.800781"/><stop stop-opacity="1" stop-color="rgb(99.356079%, 45.094299%, 0%)" offset="0.804688"/><stop stop-opacity="1" stop-color="rgb(99.353027%, 44.889832%, 0%)" offset="0.808594"/><stop stop-opacity="1" stop-color="rgb(99.349976%, 44.68689%, 0%)" offset="0.8125"/><stop stop-opacity="1" stop-color="rgb(99.345398%, 44.482422%, 0%)" offset="0.816406"/><stop stop-opacity="1" stop-color="rgb(99.342346%, 44.27948%, 0%)" offset="0.820312"/><stop stop-opacity="1" stop-color="rgb(99.339294%, 44.075012%, 0%)" offset="0.824219"/><stop stop-opacity="1" stop-color="rgb(99.336243%, 43.870544%, 0%)" offset="0.828125"/><stop stop-opacity="1" stop-color="rgb(99.333191%, 43.666077%, 0%)" offset="0.832031"/><stop stop-opacity="1" stop-color="rgb(99.330139%, 43.463135%, 0%)" offset="0.835938"/><stop stop-opacity="1" stop-color="rgb(99.327087%, 43.258667%, 0%)" offset="0.839844"/><stop stop-opacity="1" stop-color="rgb(99.324036%, 43.055725%, 0%)" offset="0.84375"/><stop stop-opacity="1" stop-color="rgb(99.320984%, 42.851257%, 0%)" offset="0.847656"/><stop stop-opacity="1" stop-color="rgb(99.317932%, 42.648315%, 0%)" offset="0.851562"/><stop stop-opacity="1" stop-color="rgb(99.31488%, 42.443848%, 0%)" offset="0.855469"/><stop stop-opacity="1" stop-color="rgb(99.311829%, 42.23938%, 0%)" offset="0.859375"/><stop stop-opacity="1" stop-color="rgb(99.308777%, 42.034912%, 0%)" offset="0.863281"/><stop stop-opacity="1" stop-color="rgb(99.305725%, 41.83197%, 0%)" offset="0.867188"/><stop stop-opacity="1" stop-color="rgb(99.302673%, 41.627502%, 0%)" offset="0.871094"/><stop stop-opacity="1" stop-color="rgb(99.299622%, 41.424561%, 0%)" offset="0.875"/><stop stop-opacity="1" stop-color="rgb(99.29657%, 41.220093%, 0%)" offset="0.878906"/><stop stop-opacity="1" stop-color="rgb(99.293518%, 41.017151%, 0%)" offset="0.882812"/><stop stop-opacity="1" stop-color="rgb(99.290466%, 40.812683%, 0%)" offset="0.886719"/><stop stop-opacity="1" stop-color="rgb(99.287415%, 40.608215%, 0%)" offset="0.890625"/><stop stop-opacity="1" stop-color="rgb(99.282837%, 40.403748%, 0%)" offset="0.894531"/><stop stop-opacity="1" stop-color="rgb(99.279785%, 40.200806%, 0%)" offset="0.898438"/><stop stop-opacity="1" stop-color="rgb(99.276733%, 39.996338%, 0%)" offset="0.902344"/><stop stop-opacity="1" stop-color="rgb(99.273682%, 39.793396%, 0%)" offset="0.90625"/><stop stop-opacity="1" stop-color="rgb(99.27063%, 39.588928%, 0%)" offset="0.910156"/><stop stop-opacity="1" stop-color="rgb(99.267578%, 39.38446%, 0%)" offset="0.914062"/><stop stop-opacity="1" stop-color="rgb(99.264526%, 39.179993%, 0%)" offset="0.917969"/><stop stop-opacity="1" stop-color="rgb(99.261475%, 38.977051%, 0%)" offset="0.921875"/><stop stop-opacity="1" stop-color="rgb(99.258423%, 38.772583%, 0%)" offset="0.925781"/><stop stop-opacity="1" stop-color="rgb(99.255371%, 38.569641%, 0%)" offset="0.929688"/><stop stop-opacity="1" stop-color="rgb(99.252319%, 38.365173%, 0%)" offset="0.933594"/><stop stop-opacity="1" stop-color="rgb(99.249268%, 38.162231%, 0%)" offset="0.9375"/><stop stop-opacity="1" stop-color="rgb(99.246216%, 37.957764%, 0%)" offset="0.941406"/><stop stop-opacity="1" stop-color="rgb(99.243164%, 37.753296%, 0%)" offset="0.945312"/><stop stop-opacity="1" stop-color="rgb(99.240112%, 37.548828%, 0%)" offset="0.949219"/><stop stop-opacity="1" stop-color="rgb(99.237061%, 37.345886%, 0%)" offset="0.953125"/><stop stop-opacity="1" stop-color="rgb(99.234009%, 37.141418%, 0%)" offset="0.957031"/><stop stop-opacity="1" stop-color="rgb(99.230957%, 36.938477%, 0%)" offset="0.960938"/><stop stop-opacity="1" stop-color="rgb(99.227905%, 36.734009%, 0%)" offset="0.964844"/><stop stop-opacity="1" stop-color="rgb(99.224854%, 36.531067%, 0%)" offset="0.96875"/><stop stop-opacity="1" stop-color="rgb(99.220276%, 36.326599%, 0%)" offset="0.972656"/><stop stop-opacity="1" stop-color="rgb(99.217224%, 36.122131%, 0%)" offset="0.976562"/><stop stop-opacity="1" stop-color="rgb(99.214172%, 35.917664%, 0%)" offset="0.980469"/><stop stop-opacity="1" stop-color="rgb(99.211121%, 35.714722%, 0%)" offset="0.984375"/><stop stop-opacity="1" stop-color="rgb(99.208069%, 35.510254%, 0%)" offset="0.988281"/><stop stop-opacity="1" stop-color="rgb(99.205017%, 35.307312%, 0%)" offset="0.992188"/><stop stop-opacity="1" stop-color="rgb(99.201965%, 35.102844%, 0%)" offset="0.996094"/><stop stop-opacity="1" stop-color="rgb(99.198914%, 34.899902%, 0%)" offset="1"/></linearGradient></defs><g clip-path="url(#19aae27aec)"><g clip-path="url(#36a1a85b31)"><path fill="url(#e2664dd86c)" d="M 251.625 262.058594 L 251.625 112.855469 L 123.375 112.855469 L 123.375 262.058594 Z M 251.625 262.058594 " fill-rule="nonzero"/></g></g></svg>