<svg xmlns="http://www.w3.org/2000/svg" xmlns:xlink="http://www.w3.org/1999/xlink" width="500" zoomAndPan="magnify" viewBox="0 0 375 374.999991" height="500" preserveAspectRatio="xMidYMid meet" version="1.0"><defs><clipPath id="fbc4f0944f"><path d="M 112.5 112.5 L 262.5 112.5 L 262.5 262.5 L 112.5 262.5 Z M 112.5 112.5 " clip-rule="nonzero"/></clipPath></defs><g clip-path="url(#fbc4f0944f)"><path fill="#46cc6b" d="M 262.503906 187.503906 C 262.503906 228.925781 228.925781 262.503906 187.503906 262.503906 C 172.828125 262.503906 159.136719 258.289062 147.574219 251.003906 L 112.503906 257.910156 L 126.707031 231.429688 C 117.769531 219.085938 112.503906 203.910156 112.503906 187.503906 C 112.503906 146.082031 146.082031 112.503906 187.503906 112.503906 C 228.925781 112.503906 262.503906 146.082031 262.503906 187.503906 Z M 262.503906 187.503906 " fill-opacity="1" fill-rule="nonzero"/></g><path fill="#ffffff" d="M 248.5625 187.503906 C 248.5625 189.503906 248.464844 191.5 248.269531 193.488281 C 248.074219 195.480469 247.78125 197.453125 247.390625 199.417969 C 247 201.378906 246.515625 203.316406 245.933594 205.230469 C 245.355469 207.140625 244.679688 209.023438 243.914062 210.871094 C 243.148438 212.71875 242.296875 214.523438 241.351562 216.289062 C 240.410156 218.050781 239.382812 219.765625 238.273438 221.425781 C 237.160156 223.089844 235.972656 224.695312 234.703125 226.238281 C 233.433594 227.785156 232.09375 229.265625 230.679688 230.679688 C 229.265625 232.09375 227.785156 233.433594 226.238281 234.703125 C 224.695312 235.972656 223.089844 237.160156 221.425781 238.273438 C 219.765625 239.382812 218.050781 240.410156 216.289062 241.351562 C 214.523438 242.296875 212.71875 243.148438 210.871094 243.914062 C 209.023438 244.679688 207.140625 245.355469 205.230469 245.933594 C 203.316406 246.515625 201.378906 247 199.417969 247.390625 C 197.453125 247.78125 195.480469 248.074219 193.488281 248.269531 C 191.5 248.464844 189.503906 248.5625 187.503906 248.5625 C 185.503906 248.5625 183.507812 248.464844 181.519531 248.269531 C 179.527344 248.074219 177.554688 247.78125 175.59375 247.390625 C 173.628906 247 171.691406 246.515625 169.78125 245.933594 C 167.867188 245.355469 165.984375 244.679688 164.136719 243.914062 C 162.289062 243.148438 160.484375 242.296875 158.722656 241.351562 C 156.957031 240.410156 155.246094 239.382812 153.582031 238.273438 C 151.917969 237.160156 150.3125 235.972656 148.769531 234.703125 C 147.222656 233.433594 145.742188 232.09375 144.328125 230.679688 C 142.914062 229.265625 141.574219 227.785156 140.304688 226.238281 C 139.035156 224.695312 137.847656 223.089844 136.734375 221.425781 C 135.625 219.765625 134.597656 218.050781 133.65625 216.289062 C 132.710938 214.523438 131.859375 212.71875 131.09375 210.871094 C 130.328125 209.023438 129.65625 207.140625 129.074219 205.230469 C 128.492188 203.316406 128.007812 201.378906 127.617188 199.417969 C 127.226562 197.453125 126.933594 195.480469 126.738281 193.488281 C 126.542969 191.5 126.445312 189.503906 126.445312 187.503906 C 126.445312 185.503906 126.542969 183.507812 126.738281 181.519531 C 126.933594 179.527344 127.226562 177.554688 127.617188 175.59375 C 128.007812 173.628906 128.492188 171.691406 129.074219 169.78125 C 129.65625 167.867188 130.328125 165.984375 131.09375 164.136719 C 131.859375 162.289062 132.710938 160.484375 133.65625 158.722656 C 134.597656 156.957031 135.625 155.246094 136.734375 153.582031 C 137.847656 151.917969 139.035156 150.3125 140.304688 148.769531 C 141.574219 147.222656 142.914062 145.742188 144.328125 144.328125 C 145.742188 142.914062 147.222656 141.574219 148.769531 140.304688 C 150.3125 139.035156 151.917969 137.847656 153.582031 136.734375 C 155.246094 135.625 156.957031 134.597656 158.722656 133.65625 C 160.484375 132.710938 162.289062 131.859375 164.136719 131.09375 C 165.984375 130.328125 167.867188 129.65625 169.78125 129.074219 C 171.691406 128.492188 173.628906 128.007812 175.59375 127.617188 C 177.554688 127.226562 179.527344 126.933594 181.519531 126.738281 C 183.507812 126.542969 185.503906 126.445312 187.503906 126.445312 C 189.503906 126.445312 191.5 126.542969 193.488281 126.738281 C 195.480469 126.933594 197.453125 127.226562 199.417969 127.617188 C 201.378906 128.007812 203.316406 128.492188 205.230469 129.074219 C 207.140625 129.65625 209.023438 130.328125 210.871094 131.09375 C 212.71875 131.859375 214.523438 132.710938 216.289062 133.65625 C 218.050781 134.597656 219.765625 135.625 221.425781 136.734375 C 223.089844 137.847656 224.695312 139.035156 226.238281 140.304688 C 227.785156 141.574219 229.265625 142.914062 230.679688 144.328125 C 232.09375 145.742188 233.433594 147.222656 234.703125 148.769531 C 235.972656 150.3125 237.160156 151.917969 238.273438 153.582031 C 239.382812 155.246094 240.410156 156.957031 241.351562 158.722656 C 242.296875 160.484375 243.148438 162.289062 243.914062 164.136719 C 244.679688 165.984375 245.355469 167.867188 245.933594 169.78125 C 246.515625 171.691406 247 173.628906 247.390625 175.59375 C 247.78125 177.554688 248.074219 179.527344 248.269531 181.519531 C 248.464844 183.507812 248.5625 185.503906 248.5625 187.503906 Z M 248.5625 187.503906 " fill-opacity="1" fill-rule="nonzero"/><path fill="#46cc6b" d="M 243.808594 187.503906 C 243.808594 189.347656 243.71875 191.1875 243.539062 193.023438 C 243.359375 194.859375 243.089844 196.679688 242.726562 198.488281 C 242.367188 200.296875 241.921875 202.085938 241.386719 203.847656 C 240.851562 205.613281 240.230469 207.347656 239.523438 209.050781 C 238.820312 210.753906 238.03125 212.421875 237.160156 214.046875 C 236.292969 215.671875 235.34375 217.253906 234.320312 218.785156 C 233.296875 220.320312 232.199219 221.800781 231.03125 223.222656 C 229.859375 224.648438 228.621094 226.015625 227.320312 227.320312 C 226.015625 228.621094 224.648438 229.859375 223.222656 231.03125 C 221.800781 232.199219 220.320312 233.296875 218.785156 234.320312 C 217.253906 235.34375 215.671875 236.292969 214.046875 237.160156 C 212.421875 238.03125 210.753906 238.820312 209.050781 239.523438 C 207.347656 240.230469 205.613281 240.851562 203.847656 241.386719 C 202.085938 241.921875 200.296875 242.367188 198.488281 242.726562 C 196.679688 243.089844 194.859375 243.359375 193.023438 243.539062 C 191.1875 243.71875 189.347656 243.808594 187.503906 243.808594 C 185.660156 243.808594 183.820312 243.71875 181.984375 243.539062 C 180.148438 243.359375 178.328125 243.089844 176.519531 242.726562 C 174.710938 242.367188 172.925781 241.921875 171.160156 241.386719 C 169.394531 240.851562 167.660156 240.230469 165.957031 239.523438 C 164.253906 238.820312 162.585938 238.03125 160.960938 237.160156 C 159.335938 236.292969 157.753906 235.34375 156.222656 234.320312 C 154.6875 233.296875 153.210938 232.199219 151.785156 231.03125 C 150.359375 229.859375 148.992188 228.621094 147.691406 227.320312 C 146.386719 226.015625 145.148438 224.648438 143.980469 223.222656 C 142.808594 221.800781 141.710938 220.320312 140.6875 218.785156 C 139.664062 217.253906 138.714844 215.671875 137.847656 214.046875 C 136.976562 212.421875 136.191406 210.753906 135.484375 209.050781 C 134.777344 207.347656 134.15625 205.613281 133.621094 203.847656 C 133.085938 202.085938 132.640625 200.296875 132.28125 198.488281 C 131.921875 196.679688 131.648438 194.859375 131.46875 193.023438 C 131.289062 191.1875 131.199219 189.347656 131.199219 187.503906 C 131.199219 185.660156 131.289062 183.820312 131.46875 181.984375 C 131.648438 180.148438 131.921875 178.328125 132.28125 176.519531 C 132.640625 174.710938 133.085938 172.925781 133.621094 171.160156 C 134.15625 169.394531 134.777344 167.660156 135.484375 165.957031 C 136.191406 164.253906 136.976562 162.585938 137.847656 160.960938 C 138.714844 159.335938 139.664062 157.753906 140.6875 156.222656 C 141.710938 154.6875 142.808594 153.210938 143.980469 151.785156 C 145.148438 150.359375 146.386719 148.992188 147.691406 147.691406 C 148.992188 146.386719 150.359375 145.148438 151.785156 143.980469 C 153.210938 142.808594 154.6875 141.710938 156.222656 140.6875 C 157.753906 139.664062 159.335938 138.714844 160.960938 137.847656 C 162.585938 136.976562 164.253906 136.191406 165.957031 135.484375 C 167.660156 134.777344 169.394531 134.15625 171.160156 133.621094 C 172.925781 133.085938 174.710938 132.640625 176.519531 132.28125 C 178.328125 131.921875 180.148438 131.648438 181.984375 131.46875 C 183.820312 131.289062 185.660156 131.199219 187.503906 131.199219 C 189.347656 131.199219 191.1875 131.289062 193.023438 131.46875 C 194.859375 131.648438 196.679688 131.921875 198.488281 132.28125 C 200.296875 132.640625 202.085938 133.085938 203.847656 133.621094 C 205.613281 134.15625 207.347656 134.777344 209.050781 135.484375 C 210.753906 136.191406 212.421875 136.976562 214.046875 137.847656 C 215.671875 138.714844 217.253906 139.664062 218.785156 140.6875 C 220.320312 141.710938 221.800781 142.808594 223.222656 143.980469 C 224.648438 145.148438 226.015625 146.386719 227.320312 147.691406 C 228.621094 148.992188 229.859375 150.359375 231.03125 151.785156 C 232.199219 153.210938 233.296875 154.6875 234.320312 156.222656 C 235.34375 157.753906 236.292969 159.335938 237.160156 160.960938 C 238.03125 162.585938 238.820312 164.253906 239.523438 165.957031 C 240.230469 167.660156 240.851562 169.394531 241.386719 171.160156 C 241.921875 172.925781 242.367188 174.710938 242.726562 176.519531 C 243.089844 178.328125 243.359375 180.148438 243.539062 181.984375 C 243.71875 183.820312 243.808594 185.660156 243.808594 187.503906 Z M 243.808594 187.503906 " fill-opacity="1" fill-rule="nonzero"/><path fill="#ffffff" d="M 177.335938 170.765625 L 173.828125 160.289062 C 172.257812 155.597656 167.179688 153.066406 162.488281 154.636719 C 162.167969 154.746094 161.855469 154.871094 161.550781 155.011719 L 155.894531 157.648438 C 152.097656 159.421875 150.035156 163.582031 150.925781 167.675781 C 154.464844 184.050781 167.476562 223.253906 211.417969 228.140625 C 214.984375 228.539062 218.441406 226.773438 220.210938 223.652344 L 223.125 218.496094 C 225.5625 214.191406 224.046875 208.726562 219.742188 206.289062 L 219.683594 206.253906 L 211.851562 201.902344 C 208.367188 199.964844 204.023438 200.5625 201.191406 203.371094 C 198.382812 206.160156 194.074219 206.773438 190.597656 204.871094 C 185.835938 202.253906 179.308594 197.792969 174.734375 191.203125 C 172.625 188.179688 172.578125 184.171875 174.617188 181.101562 L 176.300781 178.570312 C 177.828125 176.265625 178.210938 173.386719 177.335938 170.765625 Z M 177.335938 170.765625 " fill-opacity="1" fill-rule="nonzero"/></svg>